<svg width="81" height="24" viewBox="0 0 81 24" fill="none" xmlns="http://www.w3.org/2000/svg"><path d="M79.43 14.24v-2.18c0-.6-.49-1.09-1.09-1.09h-3.32v6.55h3.32c.6 0 1.09-.49 1.09-1.09v-2.19Zm-2.6-1.04h1.51v4.36h-1.51v-4.36Zm-3.95-3.15h-1.72l-2.4 6.55h1.74l.43-1.22h2.52l.43 1.22h1.74l-2.4-6.55Zm-.86 4.36.8-2.26.8 2.26h-1.6ZM63.4 12.05c0-1.8 1.46-3.26 3.26-3.26s3.26 1.46 3.26 3.26-1.46 3.26-3.26 3.26-3.26-1.46-3.26-3.26Zm5.44 0c0-1.2-.97-2.17-2.17-2.17s-2.17.97-2.17 2.17.97 2.17 2.17 2.17 2.17-.96 2.17-2.17Zm-11.23.04c0-.98.54-1.84 1.34-2.29l-1.35-2.02h1.86l.9 1.37c.4-.23.85-.36 1.33-.36 1.8 0 3.26 1.46 3.26 3.26s-1.46 3.26-3.26 3.26c-1.8 0-3.26-1.46-3.26-3.26Zm1.58 0c0 .93.75 1.68 1.68 1.68s1.68-.75 1.68-1.68-.75-1.68-1.68-1.68c-.46 0-.89.19-1.2.49l-.48.99Z" fill="#94A3B8"></path><path d="M42.22 23.01c-3.1 0-5.62-2.51-5.62-5.62V6.62c0-3.1 2.52-5.62 5.62-5.62 3.1 0 5.62 2.52 5.62 5.62v10.77c0 3.1-2.52 5.62-5.62 5.62Zm0-20.5c-1.92 0-3.48 1.56-3.48 3.48v10.77c0 1.92 1.56 3.48 3.48 3.48s3.48-1.56 3.48-3.48V6.62c0-1.92-1.56-3.48-3.48-3.48Z" fill="#94A3B8"></path><path d="M29.56 23.01c-3.1 0-5.62-2.51-5.62-5.62V6.62c0-3.1 2.52-5.62 5.62-5.62 3.1 0 5.62 2.52 5.62 5.62v10.77c0 3.1-2.52 5.62-5.62 5.62Zm0-20.5c-1.92 0-3.48 1.56-3.48 3.48v10.77c0 1.92 1.56 3.48 3.48 3.48s3.48-1.56 3.48-3.48V6.62c0-1.92-1.56-3.48-3.48-3.48Z" fill="#94A3B8"></path><path d="M9.81 2.51v20.5H.03V2.51h9.78Z" fill="#94A3B8"></path><path d="M14.61 2.51h5.05c3.1 0 5.62 2.52 5.62 5.62v.05c0 3.1-2.52 5.62-5.62 5.62h-5.05V2.51Zm5.05 9.15c1.92 0 3.48-1.56 3.48-3.48v-.05c0-1.92-1.56-3.48-3.48-3.48h-2.9v6.96h2.9Z" fill="#94A3B8"></path></svg>