<svg width="108" height="20" viewBox="0 0 108 20" fill="none" xmlns="http://www.w3.org/2000/svg"><path d="M0 19.03V0h19.02v19.02H0Zm4.53-4.52h9.97V4.53H4.53v9.97Z" fill="#94A3B8"></path><path d="M23.54 19.02V0h4.52v19.02h-4.52Z" fill="#94A3B8"></path><path d="M32.58 19.02V0h12.5c4.15 0 7.51 3.37 7.51 7.5v4.03c0 4.14-3.36 7.5-7.51 7.5h-12.5Zm4.52-14.5v10.03h7.97c1.65 0 2.99-1.33 2.99-2.98V7.5c0-1.65-1.34-2.98-2.99-2.98h-7.97Z" fill="#94A3B8"></path><path d="M57.11 19.02V0h4.52v19.02h-4.52Z" fill="#94A3B8"></path><path d="M66.15 19.02V0h12.5c4.15 0 7.51 3.37 7.51 7.5v4.03c0 4.14-3.36 7.5-7.51 7.5H66.15Zm4.52-14.5v10.03h7.97c1.65 0 2.99-1.33 2.99-2.98V7.5c0-1.65-1.34-2.98-2.99-2.98h-7.97Z" fill="#94A3B8"></path><path d="M93.31 19.02h-4.52V0h4.52v19.02Z" fill="#94A3B8"></path><path d="M98.83 19.02V0h4.52v14.5h4.52v4.52h-9.04Z" fill="#94A3B8"></path></svg>