<svg width="74" height="28" viewBox="0 0 74 28" fill="none" xmlns="http://www.w3.org/2000/svg"><path d="M23.45 6.46v14.63h-3.44V6.46h-6.25V3.3h15.94v3.16h-6.25Z" fill="#94A3B8"></path><path d="M37.7 21.09c-3.8 0-6.88-3.08-6.88-6.88s3.08-6.88 6.88-6.88 6.88 3.08 6.88 6.88-3.08 6.88-6.88 6.88Zm0-10.6c-2.05 0-3.72 1.67-3.72 3.72s1.67 3.72 3.72 3.72 3.72-1.67 3.72-3.72-1.67-3.72-3.72-3.72Z" fill="#94A3B8"></path><path d="M53.22 21.09c-3.8 0-6.88-3.08-6.88-6.88s3.08-6.88 6.88-6.88 6.88 3.08 6.88 6.88-3.08 6.88-6.88 6.88Zm0-10.6c-2.05 0-3.72 1.67-3.72 3.72s1.67 3.72 3.72 3.72 3.72-1.67 3.72-3.72-1.67-3.72-3.72-3.72Z" fill="#94A3B8"></path><path d="M66.19 20.8h-1.9l-1.6-4.5h-4.14l-1.6 4.5h-1.9l4.9-14.34h1.07l4.9 14.34Zm-5.3-6.19h3.23l-1.6-4.9-1.63 4.9Z" fill="#94A3B8"></path><path d="M0 27.02 27.02 0h-9.9L0 17.11v9.91Zm0-11.89L15.13 0h-9.9L0 5.22v9.91Z" fill="#94A3B8"></path></svg>