<svg width="79" height="24" viewBox="0 0 79 24" fill="none" xmlns="http://www.w3.org/2000/svg"><path d="M1.38 23.01c-3.1 0-5.62-2.52-5.62-5.62V6.62c0-3.1 2.52-5.62 5.62-5.62H6.2c3.1 0 5.62 2.52 5.62 5.62v10.77c0 3.1-2.52 5.62-5.62 5.62H1.38Zm0-20.5c-1.92 0-3.48 1.56-3.48 3.48v10.77c0 1.92 1.56 3.48 3.48 3.48h4.82c1.92 0 3.48-1.56 3.48-3.48V6.62c0-1.92-1.56-3.48-3.48-3.48H1.38Z" fill="#94A3B8"></path><path d="M14.61 2.51h5.05c3.1 0 5.62 2.52 5.62 5.62v.05c0 3.1-2.52 5.62-5.62 5.62h-5.05V2.51Zm5.05 9.15c1.92 0 3.48-1.56 3.48-3.48v-.05c0-1.92-1.56-3.48-3.48-3.48h-2.9v6.96h2.9Z" fill="#94A3B8"></path><path d="M37.36 11.66h-5.05V2.51h12.82v9.15h-5.05v9.15h-2.72v-9.15Z" fill="#94A3B8"></path><path d="M57.69 2.51v20.5h-8.24V2.51h8.24Z" fill="#94A3B8"></path><path d="M72.94 2.51v20.5h-2.18V7.55L64.4 23.01h-2.01L56 7.55v15.46h-2.18V2.51h3.33l5.5 13.56 5.5-13.56h3.3Z" fill="#94A3B8"></path></svg>