<svg width="107" height="24" viewBox="0 0 107 24" fill="none" xmlns="http://www.w3.org/2000/svg"><path d="M12.44 23.01c-3.1 0-5.62-2.52-5.62-5.62V6.62c0-3.1 2.52-5.62 5.62-5.62 3.1 0 5.62 2.52 5.62 5.62v10.77c0 3.1-2.52 5.62-5.62 5.62Zm0-20.5c-1.92 0-3.48 1.56-3.48 3.48v10.77c0 1.92 1.56 3.48 3.48 3.48s3.48-1.56 3.48-3.48V6.62c0-1.92-1.56-3.48-3.48-3.48Z" fill="#94A3B8"></path><path d="M22.86 2.51v20.5H32.4l.23-11.45h.06l5.12 11.45h4.63l5.1-11.45h.07l.24 11.45h9.45V2.51h-9.8l-.23 11.2h-.07L42.2 2.51h-4.32L32.65 13.7h-.07L32.44 2.51h-9.58Z" fill="#94A3B8"></path><path d="M58.38 23.01c-3.1 0-5.62-2.52-5.62-5.62V6.62c0-3.1 2.52-5.62 5.62-5.62 3.1 0 5.62 2.52 5.62 5.62v10.77c0 3.1-2.52 5.62-5.62 5.62Zm0-20.5c-1.92 0-3.48 1.56-3.48 3.48v10.77c0 1.92 1.56 3.48 3.48 3.48s3.48-1.56 3.48-3.48V6.62c0-1.92-1.56-3.48-3.48-3.48Z" fill="#94A3B8"></path><path d="M78.65 2.51v20.5h-2.18V7.55L70.1 23.01h-2.01L61.73 7.55v15.46h-2.18V2.51h3.33l5.5 13.56 5.5-13.56h3.3Z" fill="#94A3B8"></path><path d="M96.79 2.51v20.5H87.01V2.51h9.78Z" fill="#94A3B8"></path><path d="m96.9 14.12 10.1-11.61h-9.9L88.9 10.3v3.82l8-1.35Z" fill="#94A3B8"></path></svg>